<?xml version="1.0" encoding="UTF-8" standalone="no"?>
<!-- Created with Inkscape (http://www.inkscape.org/) -->

<svg
   xmlns:dc="http://purl.org/dc/elements/1.1/"
   xmlns:cc="http://creativecommons.org/ns#"
   xmlns:rdf="http://www.w3.org/1999/02/22-rdf-syntax-ns#"
   xmlns="http://www.w3.org/2000/svg"
   xmlns:sodipodi="http://sodipodi.sourceforge.net/DTD/sodipodi-0.dtd"
   xmlns:inkscape="http://www.inkscape.org/namespaces/inkscape"
   version="1.1"
   id="svg96"
   width="400"
   height="253.33333"
   viewBox="0 0 400 253.33333"
   sodipodi:docname="thylacine.svg"
   inkscape:version="0.92.2 5c3e80d, 2017-08-06">
  <metadata
     id="metadata102">
    <rdf:RDF>
      <cc:Work
         rdf:about="">
        <dc:format>image/svg+xml</dc:format>
        <dc:type
           rdf:resource="http://purl.org/dc/dcmitype/StillImage" />
        <dc:title>Thylacine</dc:title>
      </cc:Work>
    </rdf:RDF>
  </metadata>
  <defs
     id="defs100" />
  <sodipodi:namedview
     pagecolor="#ffffff"
     bordercolor="#666666"
     borderopacity="1"
     objecttolerance="10"
     gridtolerance="10"
     guidetolerance="10"
     inkscape:pageopacity="0"
     inkscape:pageshadow="2"
     inkscape:window-width="1920"
     inkscape:window-height="921"
     id="namedview98"
     showgrid="false"
     inkscape:zoom="0.34736843"
     inkscape:cx="-1152.4271"
     inkscape:cy="-292.91512"
     inkscape:window-x="0"
     inkscape:window-y="27"
     inkscape:window-maximized="1"
     inkscape:current-layer="svg96" />
  <g
     id="g126"
     transform="translate(-2.5445153,3.562318)">
    <path
       style="fill:#a0916b;stroke-width:1.33333337"
       d="m 205.1654,242.30178 c -1.50695,-0.6358 -20.40695,-1.46895 -42,-1.85145 -23.20459,-0.41104 -40.79509,-1.28587 -43.01356,-2.13918 -2.06441,-0.79405 -10.46441,-1.44693 -18.66667,-1.45084 -13.213442,-0.007 -44.300427,-3.96609 -47.717911,-6.07821 -0.653187,-0.40369 -4.227876,-0.75753 -7.943753,-0.78632 -5.619096,-0.0435 -7.422338,-0.70356 -10.714566,-3.92181 -2.177133,-2.12822 -5.460756,-4.85384 -7.296938,-6.05696 -1.836183,-1.20311 -3.147615,-2.76018 -2.914292,-3.46014 0.233321,-0.69997 4.90548,-3.78961 10.382574,-6.86588 7.295251,-4.09745 10.077046,-6.41798 10.402192,-8.67734 0.868731,-6.03659 -1.018866,-9.08228 -8.447144,-13.62971 -5.277737,-3.23092 -7.217934,-5.17617 -6.81621,-6.834 0.308864,-1.27461 -0.622906,-3.8233 -2.070602,-5.66374 l -2.632172,-3.34627 3.486615,-1.32561 c 1.917639,-0.72908 4.916739,-1.68455 6.664668,-2.12324 3.111575,-0.78096 5.512165,-4.1936 4.008021,-5.69775 -0.417498,-0.41751 -4.41966,-0.65763 -8.893692,-0.53363 -12.71368,0.35239 -15.791852,-2.51417 -10.256417,-9.55134 2.345053,-2.98126 3.524496,-3.44723 7,-2.76558 2.834304,0.5559 3.588276,0.41252 2.342273,-0.44538 -2.137096,-1.47146 -0.887486,-4.22998 1.916176,-4.22998 1.056722,0 1.921311,-0.88857 1.921311,-1.9746 0,-3.14002 6.375341,-3.99156 11.519265,-1.53858 5.593364,2.66728 11.593422,2.79461 15.527646,0.3295 1.624198,-1.01769 5.209072,-2.246 7.966384,-2.72957 4.693941,-0.82323 5.479589,-0.43824 12.333333,6.04375 4.026021,3.80765 7.320039,6.57025 7.320039,6.13913 0,-1.03841 -5.357786,-10.39871 -7.404667,-12.93629 -0.887288,-1.1 -2.051627,-3.5 -2.587419,-5.33334 -0.53579,-1.83333 -2.519014,-4.98333 -4.407162,-7 -2.91099,-3.10913 -4.510136,-3.66666 -10.516874,-3.66666 -6.755018,0 -9.429156,-1.8504 -5.083878,-3.51784 4.025717,-1.54481 1.836716,-3.14955 -4.333334,-3.17673 -11.291714,-0.0498 -36.895504,-3.65422 -40.867214,-5.75324 -8.7510002,-4.62485 -6.9538361,-8.87899 5.1331,-12.150772 6.84684,-1.853354 10.016074,-3.62583 14.648106,-8.192334 3.250996,-3.205006 8.295395,-6.781368 11.209774,-7.94747 3.474257,-1.390123 5.839857,-3.426247 6.869956,-5.913126 1.373772,-3.316579 2.274104,-3.792935 7.168798,-3.792935 5.267502,0 5.79159,0.356369 8.884264,6.041121 3.063303,5.630762 4.101678,6.352837 15.28655,10.630088 18.72439,7.160465 20.32122,7.510124 26.82202,5.873204 3.18622,-0.802299 11.35472,-1.803474 18.15222,-2.224835 16.25139,-1.007383 15.97865,-0.898505 13.98549,-5.583083 -0.89452,-2.102402 -2.57436,-5.24019 -3.73296,-6.972864 l -2.10657,-3.150313 -4.71748,2.915563 c -7.45459,4.607192 -12.02395,3.546909 -13.29259,-3.084438 -0.41184,-2.152761 -1.40307,-2.592935 -5.14348,-2.284074 -2.54832,0.210425 -7.08692,0.510425 -10.08577,0.666666 -2.998852,0.156242 -6.420028,1.08362 -7.602616,2.060843 -1.182588,0.977221 -3.222094,1.570332 -4.532234,1.318021 -4.134217,-0.796177 -3.588533,-5.121113 1.292328,-10.242627 3.057576,-3.208331 4.89469,-6.644072 5.422683,-10.141419 0.439184,-2.909092 2.015116,-6.934796 3.502069,-8.94601 1.48696,-2.011214 2.70356,-5.220492 2.70356,-7.131731 0,-3.966439 2.16247,-8.633001 4.00051,-8.633001 0.68202,0 3.29012,1.8 5.79578,4 5.5445,4.868134 6.2587,4.903488 11.41466,0.565034 6.04555,-5.086993 8.64988,-3.941061 9.45571,4.16061 0.50175,5.044456 1.82111,8.149793 5.33334,12.552909 10.99048,13.778248 13.1312,15.291514 29.07133,20.550334 16.05232,5.295831 19.63892,5.316865 21.6122,0.126747 1.7012,-4.474513 6.87317,-7.431561 12.84873,-7.346197 46.91227,-25.582675 40.76205,0.05504 76.05794,6.723895 2.19294,0 11.23602,7.99648 10.46108,9.250367 12.2379,8.792324 14.7498,0.527978 24.50829,16.620597 0.97183,1.17097 2.66279,2.12904 3.75772,2.12904 2.88199,0 12.34405,10.69789 13.24076,14.97009 1.01871,4.85352 2.28561,5.69694 12.44195,8.28304 5.78182,1.47222 13.30782,2.12882 22.60968,1.97255 8.36905,-0.1406 14.12158,0.30145 14.38969,1.10576 0.83605,2.50816 -4.31157,3.50512 -19.66604,3.8088 -8.43333,0.1668 -16.94017,0.35348 -18.90409,0.41485 l -3.57076,0.1116 3.42464,7.07661 c 6.30509,13.02876 24.1271,22.05552 46.36945,23.48591 9.82391,0.63177 12.06357,1.17799 12.41645,3.02813 0.5852,3.06807 -6.70918,4.34802 -18.19224,3.1922 -10.8707,-1.09417 -16.88373,-2.58442 -28.55176,-7.07616 -4.95457,-1.90732 -9.4016,-3.07457 -9.88226,-2.59389 -0.48068,0.48068 -0.22444,3.12693 0.56941,5.88057 3.36277,11.66447 4.32116,16.24403 4.32116,20.64818 0,2.64657 1.15396,6.13251 2.66667,8.05561 3.86696,4.91604 3.3215,8.65621 -2.57948,17.68741 -8.80538,13.47624 -21.37234,21.48423 -39.64952,25.26569 -5.55444,1.14919 -25.74059,2.42798 -51.771,3.27968 -23.46667,0.76783 -44.16667,1.68054 -46,2.02823 -1.83334,0.34769 -4.5663,0.112 -6.07324,-0.52381 z M 96.487507,204.30253 c -62.628661,30.31232 -31.314331,15.15616 0,0 z M 95.83981,185.86742 c -62.196863,42.60239 -31.098432,21.3012 0,0 z"
       id="path130"
       inkscape:connector-curvature="0"
       sodipodi:nodetypes="cscccccccsssccccccccccsscscsscsssscsssssssssscccscsscssscssssssscccccscsscscccsccscssssssscccccc" />
    <path
       style="fill:#505236;stroke-width:1.33333337"
       d="m 206.97733,238.82833 c -0.38817,-0.38816 -5.99799,-1.3071 -12.46625,-2.04207 -12.05987,-1.37033 -20.60578,-4.96339 -20.60578,-8.66352 0,-1.02328 -1.53081,-2.86353 -3.4018,-4.08945 -4.27082,-2.79836 -2.20486,-6.14404 2.12443,-3.44035 1.96957,1.23001 4.68312,1.33229 10.4988,0.39571 10.03893,-1.61672 16.66784,-5.08306 23.85736,-12.47527 l 5.74544,-5.90744 -0.41211,-9.86927 c -0.31724,-7.59707 -0.009,-9.78625 1.33612,-9.50873 2.99888,0.61844 9.47888,-4.06882 13.0176,-9.4162 l 3.38963,-5.12206 13.58893,12.93026 c 8.9223,8.48984 14.47664,14.93477 16.17387,18.76724 2.57379,5.81179 2.57319,5.85273 -0.14119,9.49193 -2.14441,2.87507 -3.96994,3.72622 -8.55513,3.98882 -7.29949,0.41805 -13.42979,5.60534 -11.04648,9.34722 0.81235,1.27542 3.20519,2.36843 5.31743,2.42892 9.4863,0.2717 12.80196,0.28022 12.97538,1.4847 1.15108,0.69232 3.22576,0.28324 3.74824,-0.63362 -0.74421,-0.47298 -0.30332,-2.05478 1.96475,-4.74536 3.45833,-4.10257 11.15207,-19.67744 11.15207,-22.57574 0,-0.79464 -2.14632,-4.56116 -4.7696,-8.37006 -2.62328,-3.80887 -6.18611,-10.82765 -7.91738,-15.59726 -3.02974,-8.34685 -3.10224,-9.41572 -1.93337,-28.50567 1.64656,-26.89167 1.69472,-25.83364 -1.17591,-25.83364 -1.3546,0 -3.11398,-1.35 -3.90976,-3 -1.32734,-2.75223 -1.45429,-2.59355 -1.53708,1.92131 -0.11453,6.24419 -1.84768,7.36389 -4.1848,2.70355 l -1.81782,-3.62486 -0.40374,4.66667 c -0.67821,7.83937 -1.54465,10.2966 -5.13534,14.56391 -5.13015,6.09682 -8.20236,5.41402 -3.92994,-0.87342 3.1096,-4.5762 3.37387,-6.10342 3.28768,-19 -0.10213,-15.28384 -2.21136,-24.992749 -2.61213,-12.02382 -0.27189,8.79816 -1.48173,13.61808 -3.59509,14.32253 -1.04431,0.34811 -1.69531,-2.04564 -1.96748,-7.23448 l -0.40676,-7.75472 -1.7711,5.87946 c -1.83124,6.07909 -5.48486,12.63384 -6.48477,11.63393 -0.31341,-0.31341 0.084,-4.17554 0.88315,-8.58252 0.79928,-4.40774 1.01524,-10.61872 0.48004,-13.80511 l -0.97294,-5.792427 -0.91304,5.999997 c -2.55792,16.80929 -7.67589,24.81126 -5.85953,9.1614 0.97972,-8.44136 -0.91253,-10.365197 -2.48108,-2.52248 -1.18909,5.94547 -3.52459,4.89177 -3.6326,-1.63892 -0.0515,-3.11666 -0.60936,-6.866664 -1.23961,-8.33333 -1.0263,-2.388302 -1.1557,-2.295298 -1.23962,0.89095 -0.22548,8.55949 -3.47309,10.38819 -4.92942,2.77572 l -0.95655,-5.000004 -1.142,4.333334 c -1.53411,5.82122 -2.94572,5.45581 -5.15088,-1.333334 l -1.84057,-5.666666 -0.45496,4.333333 c -0.57771,5.502517 -2.26267,5.502517 -5.18772,0 l -2.30355,-4.333333 -0.73069,3.813805 -0.73071,3.813805 -2.52047,-2.79224 c -2.52053,-2.792309 -7.3601,-2.790725 -10.93554,0.0036 -0.8008,0.625854 -1.9006,0.69312 -2.44398,0.149483 -2.80509,-2.806433 -17.27306,0.670947 -31.07464,7.468797 -3.94558,1.94336 -4.45029,1.94163 -6,-0.0206 -2.5751,-3.26053 -11.03052,-5.44949 -17.0934,-4.42517 -4.78403,0.80825 -5.71025,1.6261 -8.81002,7.77919 -1.90517,3.78178 -4.47966,8.37597 -5.72109,10.2093 -5.98234,8.83466 -7.7889,19.2018 -4.704978,27 1.464263,3.70263 -2.751389,2.86424 -5.932442,-1.17981 -3.293692,-4.18726 -3.538866,-9.78644 -0.671331,-15.33164 1.15066,-2.22514 2.676388,-7.67373 3.390504,-12.10799 1.25368,-7.78464 1.150224,-8.30678 -3.004021,-15.16125 -5.400044,-8.910036 -10.381223,-11.422485 -16.11827,-8.129872 -5.510632,3.162668 -6.757477,2.856238 -9.561108,-2.34979 -2.890304,-5.36697 -1.967194,-11.250834 1.10967,-7.072982 0.945136,1.283334 3.180221,2.333334 4.966857,2.333334 1.786635,0 8.320489,2.09776 14.519676,4.661689 l 11.271249,4.661688 22.666664,-0.807268 c 20.1321,-0.717001 23.98324,-1.239449 34.44074,-4.672253 15.52746,-5.09709 17.21484,-6.061423 16.20016,-9.258394 -1.11322,-3.507442 2.208,-3.400732 5.4439,0.174915 1.98892,2.197721 3.45787,2.588793 7.20666,1.918593 10.7865,-1.92839 14.2991,-3.386472 15.73145,-6.530132 1.50559,-3.304398 2.60508,-3.564035 23.10905,-5.457069 3.37258,-0.311373 8.57643,-1.408326 11.56414,-2.437673 2.9877,-1.029347 6.1739,-1.413127 7.08046,-0.852844 0.90656,0.560281 2.40423,0.728613 3.32815,0.374071 1.98721,-0.762566 7.301,2.409852 14.23247,8.497009 2.75212,2.416884 6.25949,4.394334 7.79417,4.394334 4.74915,0 10.56141,5.316287 13.78745,12.610948 1.69722,3.837688 4.05979,7.351356 5.25019,7.808156 1.19039,0.45679 2.16435,1.68517 2.16435,2.72973 0,2.28785 -3.23751,3.72674 -6,2.66667 -1.1,-0.42211 -2,-0.10328 -2,0.70851 0,2.47755 -3.99364,1.64045 -4.09024,-0.85735 -0.0724,-1.87161 -0.37375,-1.74597 -1.52294,0.63494 -1.8937,3.92344 0.63168,7.03173 5.7131,7.03173 5.03488,0 21.68893,8.90059 37.05669,19.80459 18.13177,12.86517 21.2606,14.88733 30.60693,19.78121 4.63663,2.42781 7.75683,4.4142 6.93379,4.4142 -1.9634,0 -7.53617,-2.88503 -21.364,-11.06016 -6.23333,-3.6852 -14.70512,-8.69273 -18.8262,-11.12785 -16.59363,-9.8051 -30.50713,-14.96264 -30.50713,-11.30858 0,2.13991 3.6306,4.22132 5.86658,3.36329 1.42078,-0.5452 3.3544,0.39471 5.43867,2.64366 1.77875,1.91931 4.31273,3.48965 5.63108,3.48968 2.84563,4e-5 9.84479,8.32447 11.73033,13.95143 0.73334,2.18845 2.61935,4.61808 4.19114,5.39916 6.19198,3.07704 7.43276,4.96368 6.61748,10.06214 -0.68392,4.27702 -0.21052,5.46067 3.86049,9.65246 2.552,2.6277 6.20632,5.563 8.12071,6.52288 3.28316,1.64618 10.05382,12.19223 12.78398,19.91246 0.99398,2.81072 0.6043,4.43428 -1.97737,8.23859 -3.39965,5.00968 -14.91927,15.59417 -16.97187,15.59417 -0.66729,0 -3.7808,1.76585 -6.9189,3.92411 -7.76331,5.33928 -20.90156,6.90254 -63.30214,7.53209 -18.47805,0.27436 -36.17805,1.09428 -39.33333,1.82205 -6.42607,1.4822 -10.94171,1.73912 -11.99816,0.68266 z m 79.84112,-59.76293 c 0.42977,-0.42979 -0.20295,-2.15015 -1.40607,-3.82303 -8.5654,-11.90993 -15.83893,-22.25767 -17.83037,-25.36652 -1.28885,-2.01203 -2.79337,-3.66203 -3.34337,-3.66667 -0.55,-0.004 -1,4.83022 -1,10.74412 0,10.71411 0.0203,10.77642 5.66666,17.42758 5.44488,6.41376 5.89104,6.65136 11.3992,6.07048 3.1529,-0.33251 6.08416,-0.95619 6.51395,-1.38596 z M 263.9053,116.86742 c 0.45323,-0.73333 1.98864,-1.33333 3.41203,-1.33333 1.42339,0 2.58797,-0.56459 2.58797,-1.25464 0,-1.96956 -2.38752,-2.94238 -3.3599,-1.36903 -1.55998,2.52408 -4.37427,-1.19461 -5.38822,-7.11975 -0.7609,-4.44654 -1.15713,-5.04447 -1.93716,-2.92325 -0.89589,2.43634 -0.50101,9.56441 0.75711,13.66667 0.61365,2.00088 2.78376,2.18503 3.92817,0.33333 z M 249.82078,97.200756 c -0.0779,-4.605144 -0.18693,-4.743637 -1.38146,-1.753712 -0.71334,1.785459 -0.99414,4.035459 -0.624,4.999996 1.2306,3.20692 2.09101,1.81417 2.00546,-3.246284 z M 153.18381,231.44538 c -1.22712,-1.98553 0.19564,-3.06505 2.74849,-2.08543 1.17811,0.45208 1.76858,1.4262 1.31216,2.16472 -1.08077,1.74872 -2.95348,1.71215 -4.06065,-0.0793 z m -87.210247,-2.10489 c -2.604209,-0.83982 -8.034927,-2.26424 -12.06826,-3.1654 -4.033333,-0.90115 -8.533333,-2.68528 -10,-3.96475 -1.466667,-1.27945 -4.356533,-2.72647 -6.421925,-3.21557 -6.102868,-1.44523 -3.892996,-4.98032 6.20144,-9.92031 8.348982,-4.0858 9.042396,-4.74032 8.272353,-7.80841 -0.596273,-2.37575 -0.144781,-3.86267 1.553819,-5.11728 1.918518,-1.41707 2.063116,-2.10428 0.727646,-3.45826 -0.916666,-0.92937 -1.666666,-2.73994 -1.666666,-4.0235 0,-1.28356 -1.021658,-2.90549 -2.27035,-3.60429 -3.060965,-1.71302 -0.376642,-5.02822 5.033474,-6.21648 5.220925,-1.14671 12.225193,-8.19824 11.236744,-11.31256 -0.559443,-1.76266 0.276658,-2.73419 3.242924,-3.76823 2.714966,-0.94645 4.296385,-2.59665 4.93115,-5.14564 1.654235,-6.64283 7.296956,-9.14472 9.853011,-4.36869 1.862263,3.47966 0.597805,7.47524 -2.633024,8.32012 -1.384763,0.36213 -3.777085,3.1269 -5.316272,6.14396 -2.408443,4.72094 -2.503751,5.48556 -0.683767,5.48556 1.163115,0 3.326696,-0.64862 4.80796,-1.44136 1.481264,-0.79275 2.993214,-1.14136 3.359888,-0.77468 1.183342,1.18334 -3.690054,26.78322 -5.688706,29.8827 -1.063979,1.65 -2.841786,3 -3.95068,3 -3.181216,0 -8.589684,4.08779 -8.582396,6.48668 0.0036,1.19899 1.353642,3.82477 3,5.83507 2.598384,3.17277 4.037597,3.68482 10.9068,3.88045 6.816589,0.19413 8.202632,-0.18701 10,-2.74981 1.147617,-1.63635 3.62415,-4.88256 5.503408,-7.21379 1.879256,-2.33123 6.254276,-9.13401 9.722256,-15.11728 6.22661,-10.74269 8.00303,-12.45465 12.92357,-12.45465 3.60785,0 11.99938,-7.8198 14.2858,-13.31251 2.48871,-5.97864 3.61527,-6.64224 11.31821,-6.66708 l 6.33333,-0.0204 v 5.42643 c 0,3.85069 -1.16361,7.1177 -4.00716,11.25065 l -4.00717,5.82423 3.33096,3.74934 3.33096,3.74935 4.52648,-4.81704 c 4.27655,-4.55105 7.4926,-13.68004 7.4926,-21.26819 0,-3.86873 6.02179,-6.88056 20.82011,-10.41328 7.24893,-1.7305 14.04418,-3.56913 15.10053,-4.08585 3.42589,-1.67579 2.99656,-3.87932 -0.84159,-4.31945 l -3.74572,-0.42952 5.56015,-3.77336 c 7.02692,-4.76878 10.80901,-4.29191 14.06504,1.77336 1.37787,2.56666 4.22629,6.16897 6.32984,8.00512 l 3.82461,3.33845 -1.88812,7.27889 c -1.03846,4.00339 -2.78888,8.17966 -3.88981,9.2806 -1.78005,1.78004 -2.00171,1.15802 -2.00171,-5.61734 0,-6.46182 -0.36632,-7.61906 -2.41182,-7.61906 -1.32651,0 -3.57651,-0.88092 -5,-1.9576 -1.4235,-1.07666 -4.51707,-1.97666 -6.8746,-2 -5.7656,-0.0571 -7.65142,3.42766 -5.72552,10.57988 0.78164,2.9028 1.039,6.80046 0.57192,8.66146 -0.47682,1.8998 0.0212,5.57614 1.13566,8.38328 1.09171,2.74981 2.40858,7.54402 2.92639,10.65379 0.85251,5.11988 0.56232,6.03331 -3.07105,9.66667 -2.93264,2.93264 -5.26851,4.01252 -8.67944,4.01252 -3.09178,0 -6.07051,1.18103 -8.82548,3.49919 -3.81686,3.21166 -4.8081,3.4257 -12.06356,2.60484 -4.61262,-0.52186 -10.18483,-0.28046 -13.37886,0.57961 -3.96326,1.0672 -5.95873,1.07153 -7.2309,0.0157 -0.96639,-0.80202 -4.82059,-1.82105 -8.5649,-2.26452 -5.70972,-0.67624 -6.80784,-0.4591 -6.80784,1.3461 0,1.64609 0.87788,1.97681 3.73212,1.40596 4.93314,-0.98663 14.37606,4.27289 12.2566,6.82669 -2.08401,2.51107 -9.77516,3.58839 -14.04054,1.96669 -5.27831,-2.00681 -14.70969,-0.34684 -16.13554,2.83995 -1.05442,2.35663 -2.89801,2.58595 -23.07771,2.87049 -13.689799,0.19304 -23.711123,-0.26456 -26.666667,-1.21766 z m 57.265077,-14.47307 c 2.94459,-1.68328 3.02234,-1.90551 0.66666,-1.90551 -1.46666,0 -4.16666,0.85748 -6,1.90551 -2.94459,1.68328 -3.02234,1.90551 -0.66666,1.90551 1.46666,0 4.16666,-0.85748 6,-1.90551 z m 32.6801,7.31159 c 0.46062,-0.7453 1.39603,-1.0099 2.0787,-0.58798 1.84938,1.14298 1.50454,1.94306 -0.8375,1.94306 -1.14328,0 -1.70181,-0.60979 -1.2412,-1.35508 z m -35.09677,-52.06159 c 0.32083,-0.9625 1.37083,-2.0125 2.33333,-2.33333 1,-0.33333 1.5,0.16667 1.16667,1.16667 -0.32083,0.96249 -1.37083,2.01249 -2.33333,2.33333 -1,0.33333 -1.5,-0.16667 -1.16667,-1.16667 z m 265.41667,-3.53833 c 2.01666,-0.30551 5.31666,-0.30551 7.33333,0 2.01667,0.30549 0.36667,0.55545 -3.66667,0.55545 -4.03333,0 -5.68333,-0.24996 -3.66666,-0.55545 z m -17,-1.71167 c -3.39763,-1.46001 0.10773,-1.46001 4.66666,0 2.67964,0.85818 2.81039,1.0752 0.66667,1.10671 -1.46667,0.0216 -3.86667,-0.47645 -5.33333,-1.10671 z m -243.83393,-6.27837 c -1.33501,-1.33501 -0.95921,-17.21537 0.4981,-21.04839 1.78679,-4.69962 3.41645,-3.33168 5.44084,4.56708 0.92976,3.62775 2.62589,6.89171 3.78911,7.29162 1.15823,0.39818 3.13084,1.47253 4.38357,2.38744 1.77399,1.29558 3.54985,1.32321 8.03015,0.12493 3.16384,-0.8462 8.27796,-1.1998 11.36469,-0.78579 4.68692,0.62866 5.75959,0.33964 6.50587,-1.75286 1.63805,-4.59308 4.85966,-7.17176 9.02825,-7.2265 2.58679,-0.034 5.84927,-1.52658 8.74299,-4 2.53896,-2.1702 5.34541,-3.94581 6.23656,-3.94581 0.89113,0 2.80014,-1.5 4.24225,-3.33333 3.64252,-4.63072 5.21115,-4.16405 4.87037,1.44896 -0.27161,4.47358 -0.94969,5.15809 -10.50433,10.60378 -5.61769,3.20182 -11.77552,7.04978 -13.68405,8.55104 -1.90854,1.50126 -4.92859,2.72955 -6.71124,2.72955 -1.78266,0 -4.26515,0.54801 -5.51668,1.21781 -3.6789,1.96888 -35.19649,4.69046 -36.71645,3.17048 z m 126.0051,-16.84871 c -2.26864,-2.73354 -3.46807,-10.20625 -1.63817,-10.20625 1.45213,0 2.57885,2.15199 4.71214,9 1.03227,3.31365 -0.74589,4.01141 -3.07397,1.20625 z m 59.10733,-19.62829 c -1.63342,-2.64296 0.7242,-3.06107 5.06819,-0.89881 l 4.31997,2.1503 -4.25464,0.0853 c -2.34005,0.0469 -4.65013,-0.55464 -5.13352,-1.33677 z m -6.38961,-4.80018 c -1.61955,-1.61955 -0.92127,-3.03984 1.11111,-2.25995 1.1,0.42211 2,1.30328 2,1.95815 0,1.39788 -1.83686,1.57606 -3.11111,0.3018 z M 10.411973,105.59794 c -1.1741843,-3.05988 0.640284,-4.73052 5.137771,-4.73052 h 4.15373 l -3.131504,3.33334 c -3.578862,3.80952 -5.101747,4.15493 -6.159997,1.39718 z m 13.735674,-4.36097 -3.757656,-0.56423 5.039579,-2.569326 c 6.019176,-3.068752 6.300042,-3.1053 5.37692,-0.699679 -0.394598,1.028305 -0.363998,2.2231 0.068,2.655095 1.262418,1.26242 4.364146,-1.968723 4.364146,-4.546226 0,-2.095818 0.606218,-2.20776 5.385932,-0.994538 2.962264,0.751902 5.181819,1.979437 4.932347,2.727856 -0.47458,1.42374 -12.193312,4.939908 -15.651612,4.696218 -1.1,-0.0775 -3.690945,-0.39484 -5.757656,-0.70517 z M 35.480931,90.053018 c 0.323535,-1.018744 3.920011,-3.652262 7.992167,-5.852262 4.072157,-2.2 8.385285,-4.823466 9.584729,-5.829926 1.931057,-1.620358 2.180809,-1.423102 2.180809,1.722418 0,5.426558 -4.101401,8.905455 -11.051362,9.374007 -3.30265,0.222657 -6.745016,0.8623 -7.649703,1.421428 -1.063308,0.65716 -1.436901,0.361695 -1.05664,-0.835665 z M 62.57197,79.53409 c -0.500583,-1.577196 -0.61015,-3.167628 -0.243483,-3.534295 0.366667,-0.366667 1.076233,0.623765 1.576816,2.200961 0.500583,1.577196 0.610149,3.167628 0.243483,3.534295 -0.366667,0.366667 -1.076234,-0.623765 -1.576816,-2.200961 z m 87.66667,-2.601027 c -2.38334,-2.870793 -4.33334,-5.821586 -4.33334,-6.557318 0,-0.735732 -2.4,-2.686571 -5.33333,-4.335196 -4.54728,-2.555712 -5.33333,-3.649116 -5.33333,-7.418647 0,-2.431629 0.28107,-4.421145 0.6246,-4.421145 0.34354,0 2.97097,3.176153 5.83876,7.058118 3.29225,4.456571 7.21042,7.958324 10.63018,9.500419 6.12523,2.762095 7.03015,4.166058 5.44088,8.441462 -1.51881,4.085886 -2.50646,3.788622 -7.53442,-2.267693 z M 88.57197,74.364016 c 0,-1.548819 3.879136,-4.728569 4.730273,-3.877431 1.207427,1.207426 -0.978259,5.047505 -2.872925,5.047505 -1.021542,0 -1.857348,-0.526534 -1.857348,-1.170074 z m 11.55556,-7.718815 c -1.379292,-1.379287 -1.047096,-8.189291 0.44444,-9.111111 0.73333,-0.453225 1.33333,-2.195643 1.33333,-3.872039 0,-1.676397 1.1583,-4.096241 2.574,-5.37743 1.49937,-1.356911 2.52775,-3.955991 2.46323,-6.225432 -0.0609,-2.142797 0.22938,-4.236156 0.64514,-4.651908 1.0744,-1.074405 6.31763,1.938327 6.31763,3.630081 0,0.775198 1.2,2.935003 2.66667,4.799567 3.89833,4.95592 3.40877,7.026998 -1.66667,7.050912 -4.97208,0.02343 -6.34639,0.810193 -8.66666,4.96149 -2.03728,3.644978 -2.15967,7.018092 -0.25465,7.018092 0.77661,0 1.0412,0.6 0.58798,1.333334 -0.93112,1.506589 -5.09513,1.793761 -6.44444,0.444444 z m 17.37009,-2.331015 c 2.05756,-1.770948 4.04102,-2.9193 4.40768,-2.551895 0.8079,0.809526 -5.11465,5.771799 -6.88873,5.771799 -0.69298,0 0.42349,-1.448957 2.48105,-3.219904 z m -8.92565,-3.957921 c 0,-2.026938 5.02708,-3.835495 7.10004,-2.554334 1.5008,0.927546 -2.72494,4.398826 -5.35488,4.398826 -0.95984,0 -1.74516,-0.830022 -1.74516,-1.844492 z m 20.77726,-20.643221 c -0.57436,-0.929338 -0.68421,-2.049784 -0.24411,-2.489884 1.19328,-1.193282 2.49436,0.561737 1.84985,2.495258 -0.45163,1.3549 -0.76569,1.353848 -1.60574,-0.0053 z"
       id="path128"
       inkscape:connector-curvature="0"
       sodipodi:nodetypes="csscccccccccsccsscccsscsssccccccssscscsscccssccccccsscsccccsccscccssccssssssscssscsssccsssccsssccssssscscccccccccsscscccccscsccccsscccsccccccccccccccsccsscsccsccssccssccscssscccscccccsscccscccccsscccscscscssccsscccsccsssssccscssccsccsccccccsscccccccsccscscccsssscsccccccsccscccccsscsscccsssssssssscsssssscscsscssccssccssscsccscsssssscsccc" />
  </g>
  <g
     inkscape:groupmode="layer"
     id="layer1"
     inkscape:label="Layer 1" />
  <g
     inkscape:groupmode="layer"
     id="layer2"
     inkscape:label="Layer 2" />
</svg>
